<?xml version="1.0" encoding="utf-8"?>
<!-- Generator: Adobe Illustrator 27.4.1, SVG Export Plug-In . SVG Version: 6.00 Build 0)  -->
<svg version="1.1" id="Layer_1" xmlns="http://www.w3.org/2000/svg" xmlns:xlink="http://www.w3.org/1999/xlink" x="0px" y="0px"
	 viewBox="0 0 456 456" style="enable-background:new 0 0 456 456;" xml:space="preserve">
<style type="text/css">
	.st0{fill:#FFFFFF;}
</style>
<g>
	<path class="st0" d="M40.3,221.7c3.6-1.6,6.7-5.5,6.7-11.5c0-6.9-4.8-13.5-17.6-13.5H6.3v52.9h23.9c11.3,0,18.4-6.8,18.4-15.8
		C48.6,226.8,43.9,223.1,40.3,221.7z M17.5,205.5h10.9c4.4,0,7.4,2,7.4,5.9c0,3.7-2.2,6.2-7.7,6.2H17.5V205.5z M27.9,240.8H17.5
		v-14.4h10.3c6.3,0,9,2.7,9,7C36.8,238.2,34,240.8,27.9,240.8z"/>
	<path class="st0" d="M89.7,222.7c0-9.5-5.8-13.6-16.4-13.7c-12.1-0.1-16.4,5.6-17,12.7h10.5c0.5-2.9,1.5-4.8,6.2-4.8
		c5.1,0,6.1,2.8,6.1,5.6v2.4c-1.3,0-3.7,0-5.7,0c-11.6,0-18.9,4.2-18.9,13.2c0,6.2,4,12.5,13.6,12.5c7,0,9.7-2.6,11.2-4.8
		c0,1,0.2,3.1,0.6,3.9h10.5c-0.2-1-0.5-6.5-0.5-10.3v-16.7H89.7z M79,232.6c0,5.2-0.9,10.1-7.8,10.1c-4,0-5.7-2.4-5.7-5.3
		c0-3.8,2.5-5.9,9.1-5.9c1.5,0,3.6,0,4.5,0L79,232.6L79,232.6z"/>
	<path class="st0" d="M122.2,209c-7,0-10.2,3.5-11.5,6c-0.1-1.3-0.2-4-0.4-5.1H99.6c0.1,2.9,0.1,6.6,0.1,10v29.7h11v-22.1
		c0-7,2.7-9.6,7.3-9.6c4.9,0,6.3,3.2,6.3,7.7v24h11v-25.3C135.4,214.4,130.2,209,122.2,209z"/>
	<path class="st0" d="M181.6,193.6h-11v19.2c-0.9-1.8-4-3.8-9.7-3.8c-11.2,0-18,8.9-18,21.1c0,12.4,6.4,20.5,16.4,20.5
		c5.9,0,9.4-1.9,11.3-5.1c0.1,0.9,0.3,3,0.5,4.1h10.6c-0.1-3.6-0.1-7.3-0.1-10.9V193.6z M162.6,241.7c-5.4,0-8.4-4.2-8.4-11.9
		c0-7.5,2.9-12,8.7-12c7.2,0,8.1,5.1,8.1,11.9C171,235.4,170.1,241.7,162.6,241.7z"/>
	<path class="st0" d="M207.3,239.5L207.3,239.5c-0.7-3.7-4.3-15.9-8.4-29.6h-11.8l14.5,40.9c-1.5,4.4-3.5,5.8-7.6,5.8
		c-0.9,0-2.1-0.1-2.8-0.2v8.8c1.9,0.2,4.2,0.3,5.2,0.3c9.5,0,12.7-3.4,16.5-14.8l13.3-40.9h-10.9
		C210.5,226.6,208.2,235.5,207.3,239.5z"/>
	<path class="st0" d="M267.7,193.6h-11v19.2c-0.9-1.8-4-3.8-9.7-3.8c-11.2,0-18,8.9-18,21.1c0,12.4,6.4,20.5,16.4,20.5
		c5.9,0,9.4-1.9,11.3-5.1c0.1,0.9,0.3,3,0.5,4.1h10.6c-0.1-3.6-0.1-7.3-0.1-10.9V193.6z M248.7,241.7c-5.4,0-8.4-4.2-8.4-11.9
		c0-7.5,2.9-12,8.7-12c7.2,0,8.1,5.1,8.1,11.9C257.1,235.4,256.2,241.7,248.7,241.7z"/>
	<path class="st0" d="M295.1,209c-12.6,0-20,8.7-20,20.9c0,11.9,7.2,20.6,19.5,20.6c12.6,0,19.8-8.8,19.8-20.9
		C314.4,217.2,306.8,209,295.1,209z M294.9,241.9c-5.3,0-8.6-4.5-8.6-12.2c0-8.4,3.3-12.2,8.4-12.2c5.5,0,8.5,3.9,8.5,12.2
		C303.2,237.4,300.2,241.9,294.9,241.9z"/>
	<path class="st0" d="M339.4,224.5c-6.4-1.5-7.7-2.5-7.7-4.4c0-1.8,1.2-3.4,4.8-3.4c5.2,0,6.2,2.8,6.5,4.2h10.5
		c-0.3-5.4-4.4-12-16.5-12c-12,0-16.1,6.2-16.1,12c0,5.6,2.1,9.6,15.1,12.8c5.7,1.4,7.4,2.4,7.4,4.9c0,2.4-1.5,3.9-5.5,3.9
		c-4.1,0-6.7-1.8-7.5-4.9h-10.8c0.9,7,5.8,12.9,17.9,12.9s17.1-6,17.1-12.6C354.6,232.2,352.7,227.6,339.4,224.5z"/>
	<rect x="381.8" y="196.7" class="st0" width="11.4" height="52.9"/>
	<path class="st0" d="M430.7,218.7l21.3-22h-13.7c-6.7,7.6-17.6,19.5-21.1,23.6v-23.6h-11.3v52.9h11.3v-18.2l5.6-5.3l16.2,23.5h13.7
		L430.7,218.7z"/>
</g>
</svg>
